#!OML:ASF F:\VICON\USERDATA\INSTALL\rory3\rory3.ASF
:FULLY-SPECIFIED
:DEGREES
300
root 0.3975903473218722 17.807701606123004 63.51146371134509 -1.9705745469899858 0.7540446760509775 -1.9697709023962247
lfemur -7.28043922208917 -2.872052207006531 -18.152403291973176
ltibia 33.15086604835807
lfoot 7.330206937835854 -9.111413329763959
ltoes -1.633254070114873
rfemur -16.545009122739177 4.521502398504539 24.513008182838124
rtibia 38.147040247763435
rfoot -6.970644427086457 -9.60453566045825
rtoes 5.758498755409082
lowerback 10.912296608617124 -0.6551707333445779 1.4590309946737376
upperback -0.09246619617144476 -0.5577601570690696 2.090272046705083
thorax -5.656504602080979 -0.3463617111829082 1.76669812334386
lowerneck -16.170276916393593 -3.0124873573851243 -3.519667322629954
upperneck 22.146599995325708 -3.6340857620475915 1.4268253758679996
head 9.657868112574675 -1.799113969915482 0.6893120252959983
lclavicle -2.027148924928454e-15 -7.121944305759103e-16
lhumerus -31.77933225149271 0.37319312227980417 80.91394120184646
lradius 29.92683703639822
lwrist 9.002840189876135
lhand -31.01597602480379 18.01026359826519
lfingers 7.12502
lthumb -3.9014639503010726 48.385384667405866
rclavicle -2.0274226785542574e-15 -7.123498671780686e-16
rhumerus -30.02769256269309 -21.43923089107464 -76.19742007005898
rradius 20.78125425705716
rwrist 6.327905980506952
rhand -17.34077631650272 21.194170528736677
rfingers 7.12502
rthumb 8.16995824318071 -7.209810100462258
301
root 0.3956653664198309 17.788294999746064 63.629796814644266 -1.7997029239911642 0.8064701077368251 -2.087108388479022
lfemur -8.156773649312292 -2.723726994878511 -17.91782071927083
ltibia 33.83682733300326
lfoot 6.514302902183932 -7.936801625807298
ltoes -1.3371162287458978
rfemur -16.10023429739197 4.417706564596333 24.939950028926567
rtibia 38.96240623224572
rfoot -6.9201501901550735 -9.740204288020589
rtoes 5.990206490533863
lowerback 10.849035648876493 -0.6182522620661817 1.5817835692180047
upperback -0.1705739124424096 -0.47077623016098863 2.121592633461975
thorax -5.707589503854513 -0.31285142581791087 1.6763458778192986
lowerneck -16.135630017789246 -3.026819371470276 -3.5014771958203568
upperneck 22.133978665854368 -3.656234923552285 1.4355790039933067
head 9.650079095937416 -1.8033915930095423 0.6813672322046112
lclavicle -2.026589930320784e-15 -7.118355653492226e-16
lhumerus -31.712592774996555 0.07835182975862809 80.968900205949
lradius 29.884162431181377
lwrist 8.881570049816943
lhand -30.980799797610757 18.2117349875101
lfingers 7.12502
lthumb -3.894005482695134 48.57986614323467
rclavicle -2.0278100624898546e-15 -7.125972113034025e-16
rhumerus -30.129591728088897 -21.497064890940294 -76.26899496593002
rradius 20.85580623571929
rwrist 6.169322711987029
rhand -17.408227122676493 21.11227856184447
rfingers 7.12502
rthumb 8.133771499703556 -7.3256421113783405
302
root 0.3914659805970777 17.770464354150327 63.52786506746029 -1.7053414061554535 0.7881126224358675 -2.328379977651213
lfemur -9.063625868353213 -2.602359799225142 -17.526699057974174
ltibia 33.96433209283553
lfoot 5.919095252678497 -6.577386412469513
ltoes -1.4698317229985962
rfemur -15.723396317310907 4.28913522947199 25.43926102532111
rtibia 39.78050441115998
rfoot -6.990096432780669 -9.908967960715028
rtoes 6.234675100566855
lowerback 10.849652992319681 -0.5668172375719555 1.7767943862553848
upperback -0.20628741157923666 -0.36535072343961866 2.171216560952908
thorax -5.761144006147478 -0.2607318405138511 1.5796143539757324
lowerneck -16.120706967759705 -3.056417687130482 -3.5214752732062466
upperneck 22.140594768748304 -3.706364208674597 1.509887522751989
head 9.65866951169546 -1.818150943698353 0.6990515698247304
lclavicle -2.026402639684461e-15 -7.117157901995398e-16
lhumerus -31.63980766959604 -0.07118455642459143 81.00238291379773
lradius 29.75741044096078
lwrist 8.979755282446455
lhand -31.0117819142058 18.083999417371984
lfingers 7.12502
lthumb -3.9203211977229104 48.39921902062299
rclavicle -2.0269600475271586e-15 -7.120544478049253e-16
rhumerus -30.146196771473715 -21.408722068326743 -76.30285002034812
rradius 20.843132907119585
rwrist 6.158123582072412
rhand -17.493295611470494 21.095084867663815
rfingers 7.12502
rthumb 8.02869188554858 -7.460899555759388
303
root 0.3995035846105772 17.77562587529204 63.456144980752555 -1.6207747622374133 0.9614078387590278 -2.0648364569967326
lfemur -9.882288262528938 -2.675877220467518 -17.700081992629435
ltibia 33.62287633693779
lfoot 5.777960966272408 -5.21082794112985
ltoes -1.7602799278945378
rfemur -15.339617739430665 3.964655071895568 25.379478868001033
rtibia 40.25497165215455
rfoot -6.9340181221840815 -10.058754900748756
rtoes 6.353520350849253
lowerback 10.785652076157929 -0.5890781022014651 1.6739882880401968
upperback -0.23247883906798328 -0.4308805684740851 2.1422136297243024
thorax -5.756991842101456 -0.2979101787370568 1.521086977677702
lowerneck -16.135601504437712 -3.0745568069423252 -3.497619443687799
upperneck 22.12217037559322 -3.74601606586575 1.5597028867630716
head 9.656647715855664 -1.8303498174533774 0.7042620264602852
lclavicle -2.0258795616009216e-15 -7.113802475081775e-16
lhumerus -31.64047360330032 -0.0377501854509239 80.97486463770886
lradius 29.590066218224727
lwrist 8.662960173566429
lhand -30.92152597689429 18.408645859952745
lfingers 7.12502
lthumb -3.8578641412314005 48.580338178780586
rclavicle -2.027780293216174e-15 -7.125782216576341e-16
rhumerus -30.113810714269007 -21.32232852590128 -76.31354812673604
rradius 20.823172837720456
rwrist 6.128750868650398
rhand -17.538829722971535 21.11364289296023
rfingers 7.12502
rthumb 7.986059039382204 -7.535689513317724
304
root 0.39584232319024665 17.770057552810332 63.54385704951015 -1.4158162468483542 0.8339870917320623 -2.2766833087045524
lfemur -10.552831697275675 -2.568236171987898 -17.381936515724615
ltibia 32.86113532206629
lfoot 5.40512848270712 -4.151772406868393
ltoes -2.360320387132603
rfemur -15.03206566291462 3.9055600300433326 25.786768354960337
rtibia 40.57477428544898
rfoot -6.8299551850555575 -10.22041677725729
rtoes 5.9555571930442195
lowerback 10.716485379297012 -0.49930002953764174 1.7854847234691935
upperback -0.28236488229422463 -0.2785446009562595 2.191015075649475
thorax -5.786806603130421 -0.21757798891145963 1.4370052934279125
lowerneck -16.137542927754993 -3.0875989934577923 -3.483411486129251
upperneck 22.14413146287928 -3.7678261424770043 1.5767765133375333
head 9.676161656214614 -1.8368136353483866 0.7023481592878804
lclavicle -2.0263154155356233e-15 -7.11660080631269e-16
lhumerus -31.681007626129322 0.09675559975142844 80.97420453917414
lradius 29.42071666536385
lwrist 8.287559454925765
lhand -30.67495599900197 18.522496846672794
lfingers 7.12502
lthumb -3.5269211570366714 48.87361375346719
rclavicle -2.0271080739955003e-15 -7.121490092774812e-16
rhumerus -30.077812418459395 -21.297443933725468 -76.25833568073418
rradius 20.84723975760835
rwrist 6.252237064264634
rhand -17.555801515040258 21.045114410001315
rfingers 7.12502
rthumb 7.983999141721115 -7.580162862506685
305
root 0.4037842827763905 17.763509526303086 63.46034338619326 -1.3012050486919025 0.9594349719212042 -1.8738207663916382
lfemur -11.128721016657963 -2.7223981556601142 -17.69010113851667
ltibia 31.98672962281141
lfoot 4.902078040545582 -3.0857641535053526
ltoes -2.793452914988574
rfemur -14.872378835017171 3.5367998104471834 25.454108009828843
rtibia 40.883249675360474
rfoot -6.654144261317487 -10.354366125221457
rtoes 5.527560787687158
lowerback 10.626329243303053 -0.5093261751576805 1.585808272219809
upperback -0.3047340051729984 -0.3477431752925549 2.118470538748875
thorax -5.770193791669884 -0.25387837415723635 1.4364528863750423
lowerneck -16.156408674885597 -3.09909606382972 -3.4608017537205074
upperneck 22.13593726145056 -3.79564705039511 1.630107416589183
head 9.66985359811272 -1.8430370771902633 0.7117684742403565
lclavicle -2.0251902430245215e-15 -7.109412616980052e-16
lhumerus -31.784696864207287 0.3890676327876945 80.98100096912658
lradius 29.320834844916806
lwrist 7.8321501521457915
lhand -30.458142416810617 18.980112749035875
lfingers 7.12502
lthumb -3.318347039950015 49.26878570467716
rclavicle -2.0276643787951687e-15 -7.125042352362433e-16
rhumerus -30.014370712756488 -21.17621695523508 -76.2378951220359
rradius 20.831698721547074
rwrist 6.224848365652527
rhand -17.518277968439538 21.02149424124702
rfingers 7.12502
rthumb 8.022846038741509 -7.6039563200041105
